<?xml version="1.0" encoding="UTF-8"?>
<svg xmlns="http://www.w3.org/2000/svg" xmlns:xlink="http://www.w3.org/1999/xlink" width="20px" height="23px" viewBox="0 0 20 23" version="1.1">
<g id="surface1">
<path style=" stroke:none;fill-rule:nonzero;fill:rgb(0%,0%,0%);fill-opacity:1;" d="M 7.144531 5.253906 C 7.144531 3.722656 8.425781 2.476562 10 2.476562 C 11.574219 2.476562 12.855469 3.722656 12.855469 5.253906 L 12.855469 7.335938 L 7.144531 7.335938 Z M 5 7.335938 L 2.144531 7.335938 C 0.960938 7.335938 0 8.269531 0 9.417969 L 0 18.441406 C 0 20.738281 1.917969 22.601562 4.285156 22.601562 L 15.714844 22.601562 C 18.082031 22.601562 20 20.738281 20 18.441406 L 20 9.417969 C 20 8.269531 19.039062 7.335938 17.855469 7.335938 L 15 7.335938 L 15 5.253906 C 15 2.566406 12.761719 0.398438 10 0.398438 C 7.238281 0.398438 5 2.566406 5 5.253906 Z M 6.070312 9.417969 C 6.664062 9.417969 7.144531 9.882812 7.144531 10.460938 C 7.144531 11.035156 6.664062 11.5 6.070312 11.5 C 5.480469 11.5 5 11.035156 5 10.460938 C 5 9.882812 5.480469 9.417969 6.070312 9.417969 Z M 12.855469 10.460938 C 12.855469 9.882812 13.335938 9.417969 13.929688 9.417969 C 14.519531 9.417969 15 9.882812 15 10.460938 C 15 11.035156 14.519531 11.5 13.929688 11.5 C 13.335938 11.5 12.855469 11.035156 12.855469 10.460938 Z M 12.855469 10.460938 "/>
</g>
</svg>
